<svg xmlns="http://www.w3.org/2000/svg" xmlns:xlink="http://www.w3.org/1999/xlink" version="1.1" x="0px" y="0px" viewBox="0 0 100 125" enable-background="new 0 0 100 100" xml:space="preserve"><g><path d="M75.395,8.433c-3.449,0.007-5.18,1.634-6.899,4.884c-1.722-3.25-3.453-4.88-6.902-4.884   c-3.828-0.007-6.943,2.938-6.949,6.564c-0.013,6.573,6.917,13.163,13.85,19.75c6.931-6.588,13.861-13.177,13.852-19.75   C82.339,11.371,79.229,8.426,75.395,8.433z"/><path d="M61.284,37.445c0.156,0.754,0.141,1.547-0.081,2.306c-0.191,0.714-0.577,1.384-1.098,1.939   c-1.777,1.8-4.683,1.842-6.501,0.089l-9.003-8.785l-1.437,1.617l9.02,8.791c2.456,2.384,6.919,2.63,9.337,0.179   c0.832-0.856,1.552-2.663,1.801-3.786H81.69c2.56,0,5.087,2.384,5.087,4.932c0,2.568-1.571,5.008-5.087,5.008H50.071   c-1.645-0.046-3.507-0.691-4.933-1.908L24.935,32.585L0.052,32.492V15.999h36.496c0,0,2.412,0.05,4.077,1.021   c1.537,0.896,2.894,2.202,2.894,2.202l16.482,16.001C60.628,35.823,61.067,36.584,61.284,37.445z"/></g><g><path d="M24.489,51.09c3.448,0.007,5.18,1.634,6.898,4.884c1.723-3.25,3.455-4.88,6.902-4.884c3.828-0.008,6.944,2.938,6.95,6.562   c0.011,6.573-6.917,13.165-13.85,19.751c-6.929-6.586-13.861-13.178-13.852-19.751C17.544,54.028,20.656,51.082,24.489,51.09z"/><path d="M38.598,80.102c-0.156,0.754-0.14,1.547,0.082,2.306c0.191,0.713,0.577,1.384,1.097,1.938   c1.777,1.8,4.683,1.842,6.501,0.09l9.003-8.784l1.438,1.616l-9.021,8.792c-2.456,2.383-6.917,2.63-9.337,0.179   c-0.832-0.857-1.552-2.663-1.8-3.787H18.193c-2.561,0-5.088,2.384-5.088,4.933c0,2.567,1.57,5.007,5.088,5.007h31.618   c1.645-0.045,3.507-0.691,4.932-1.907L74.95,75.241l24.88-0.094V58.654H63.334c0,0-2.412,0.05-4.077,1.021   c-1.537,0.896-2.894,2.202-2.894,2.202L39.882,77.878C39.254,78.479,38.814,79.24,38.598,80.102z"/></g></svg>