<svg xmlns="http://www.w3.org/2000/svg" xmlns:xlink="http://www.w3.org/1999/xlink" version="1.1" x="0px" y="0px" viewBox="0 0 48 60" style="enable-background:new 0 0 48 48;" xml:space="preserve"><g><path d="M5,41.414l14-14v3.172l-14,14V46h1.414L19,33.414v3.172L9.586,46h2.828L19,39.414v3.172L15.586,46h2.828H19v2H4   c-0.552,0-1-0.447-1-1V27h2v2.414L7.414,27h3.172L5,32.586v2.828L13.414,27h3.172L5,38.586V41.414z M29,29.414v3.172L34.586,27   h-3.172L29,29.414z M21,48h6V27h-6V48z M48,14v10c0,0.553-0.448,1-1,1H29V15h-2v10h-6V15h-2v10H1c-0.552,0-1-0.447-1-1V14   c0-0.553,0.448-1,1-1h12.401c-0.607-0.227-1.194-0.452-1.746-0.67C8.059,10.911,5.46,9.889,1.447,11.895   c-0.495,0.244-1.095,0.045-1.342-0.447c-0.247-0.494-0.047-1.096,0.447-1.342c4.77-2.386,8.013-1.144,11.742,0.326   C11.426,9.282,11,8.07,11,7c0-3.636,0.727-7,6-7c3.269,0,5.719,5.213,7,9.059C25.281,5.213,27.73,0,31,0c5.273,0,6,3.364,6,7   c0,1.07-0.426,2.282-1.294,3.434c3.729-1.471,6.972-2.711,11.742-0.328c0.493,0.248,0.694,0.849,0.446,1.343   c-0.246,0.493-0.847,0.692-1.342,0.446c-4.012-2.006-6.611-0.982-10.207,0.437c-0.552,0.218-1.139,0.444-1.746,0.67H47   C47.552,13,48,13.447,48,14z M22.997,12.968C22.863,11.295,19.828,2,17,2c-3.103,0-4,1.121-4,5c0,2.37,3.401,5.598,9.8,5.961   C22.865,12.964,22.932,12.966,22.997,12.968z M35,7c0-3.879-0.896-5-4-5c-2.818,0-5.842,9.232-5.996,10.968   c0.064-0.002,0.133-0.004,0.197-0.007C31.6,12.598,35,9.37,35,7z M29,38.586L40.586,27h-3.172L29,35.414V38.586z M43,27h2v20   c0,0.553-0.448,1-1,1H29v-2h1.414L43,33.414v-2.828l-14,14v-3.172l14-14V27z M43,42.586L39.586,46h2.828L43,45.414V42.586z    M43,36.586L33.586,46h2.828L43,39.414V36.586z"/></g></svg>