<svg xmlns="http://www.w3.org/2000/svg" xmlns:xlink="http://www.w3.org/1999/xlink" version="1.1" x="0px" y="0px" viewBox="0 0 100 125" style="enable-background:new 0 0 100 100;" xml:space="preserve"><g><path d="M69.5,46.8c-0.7,0.2-2.6,0.9-3.9,2.4c-1.4,1.5-5.6,4.8-7.7,5.6c-2.3,0.8-9.8,2.1-9.9,2.1l-5,1.6c-0.8,0.3-1.8-0.1-2.1-0.9   c-0.4-0.8,0-1.8,0.9-2.2l7.6-3.5c0.5-0.2,0.9-0.5,1.2-0.9l0.4-0.5c0.4-0.5,0.7-1.2,0.7-1.9c0-1-0.4-1.9-1.2-2.4   c-0.5-0.4-1.1-1.1-1.2-2.3c0-0.4-0.3-0.8-0.7-1c-0.4-0.2-0.9-0.2-1.2,0l-7.3,3.5c-1.2,0.6-2,1.7-2.1,3.1c-1.5,0.6-2.9,1.5-4,2.7   l-0.1-0.3c-0.2-0.5-0.2-1,0-1.6l1.6-5c0.2-0.5,0.5-1,1-1.3l12.3-8c0.7-0.4,1.5-0.7,2.3-0.7h14.1c0.6,0,1-0.4,1-1s-0.4-1-1-1H50.8   c-1.2,0-2.4,0.3-3.4,1l-12.3,8c-0.9,0.6-1.5,1.4-1.8,2.4l-1.6,5c-0.3,0.9-0.3,1.9,0.1,2.9l0.6,1.6c-0.7,1.3-1.1,2.9-1.1,4.5   c0,1.2,0.2,2.3,0.6,3.4h-0.2c-1.4,0-2.5,1.1-2.5,2.5s1.1,2.5,2.5,2.5h4.7c0,0,0,0,0,0c0,0,0,0,0,0H46c0,0,0,0,0,0c0,0,0,0,0,0h4.6   c1.4,0,2.5-1.1,2.5-2.5s-1.1-2.5-2.5-2.5h-0.2c0.4-1.1,0.6-2.2,0.6-3.4c0-0.1,0-0.1,0-0.2c2.5-0.5,5.9-1.1,7.5-1.7   c2.6-0.9,7.1-4.5,8.5-6.1c1-1.1,2.5-1.7,3.1-1.8c0,0,0,0,0,0c0.5-0.2,0.8-0.7,0.6-1.3C70.6,46.9,70.1,46.6,69.5,46.8z M40.7,47.9   l6.6-3.2c0.4,1.4,1.2,2.3,1.8,2.8c0.3,0.2,0.4,0.5,0.4,0.9c0,0.2-0.1,0.5-0.2,0.7l-0.4,0.5c-0.1,0.1-0.3,0.3-0.4,0.3l-1.3,0.6   c-1.7-1.3-3.8-2-6-2c-0.4,0-0.8,0-1.2,0.1C40.1,48.4,40.4,48.1,40.7,47.9z M31.1,64.4c0-0.3,0.2-0.5,0.5-0.5h1.3   c0.2,0.4,0.5,0.7,0.8,1.1h-2C31.4,64.9,31.1,64.7,31.1,64.4z M50.6,63.8c0.3,0,0.5,0.2,0.5,0.5c0,0.3-0.2,0.5-0.5,0.5h-2   c0.3-0.3,0.6-0.7,0.8-1.1H50.6z M45.7,64.9h-9c-2.1-1.5-3.4-3.9-3.4-6.4c0-4.3,3.5-7.9,7.9-7.9c1.3,0,2.7,0.4,3.8,1l-4.2,1.9   c-1.9,0.8-2.7,3-1.9,4.9c0.6,1.4,2,2.2,3.4,2.2c0.4,0,0.8-0.1,1.3-0.2l4.8-1.6c0.1,0,0.4-0.1,0.7-0.1C49,61.1,47.7,63.5,45.7,64.9z   "/><path d="M50,13c-20.4,0-37,16.6-37,37s16.6,37,37,37c20.4,0,37-16.6,37-37S70.4,13,50,13z M50,85c-19.3,0-35-15.7-35-35   c0-19.3,15.7-35,35-35c19.3,0,35,15.7,35,35C85,69.3,69.3,85,50,85z"/></g></svg>